<svg width="32" height="32" viewBox="0 0 32 32" fill="none" xmlns="http://www.w3.org/2000/svg">
<rect width="32" height="32" rx="16" fill="#CBE6FF"/>
<path d="M16 7.29163C11.1708 7.29163 7.29167 11.1708 7.29167 16C7.29167 20.8291 11.1708 24.7083 16 24.7083C20.8292 24.7083 24.7083 20.8291 24.7083 16C24.7083 11.1708 20.8292 7.29163 16 7.29163ZM18.2167 12.8333C18.85 12.8333 19.325 13.3083 19.325 13.9416C19.325 14.575 18.85 15.05 18.2167 15.05C17.5833 15.05 17.1083 14.575 17.1083 13.9416C17.1083 13.3083 17.6625 12.8333 18.2167 12.8333ZM13.7833 12.8333C14.4167 12.8333 14.8125 13.3083 14.8125 13.9416C14.8125 14.575 14.3375 14.9708 13.7042 14.9708C13.0708 14.9708 12.675 14.4166 12.675 13.8625C12.7542 13.2291 13.2292 12.7541 13.7833 12.8333ZM19.5625 17.5041C19.5625 17.8208 19.4042 18.0583 19.2458 18.375C18.5333 19.4833 17.2667 20.5916 16 20.5916C14.6542 20.5916 13.4667 19.4041 12.7542 18.375C12.5958 18.1375 12.4375 17.8208 12.4375 17.5833C12.4375 17.3458 12.5167 17.1083 12.7542 16.95C12.7542 16.7916 12.8333 16.7916 12.8333 16.7125C12.9125 16.6333 13.0708 16.6333 13.15 16.6333H18.7708C18.9292 16.6333 19.0083 16.6333 19.0875 16.7125C19.0875 16.7125 19.1667 16.7125 19.2458 16.7916L19.325 16.8708C19.4833 17.0291 19.5625 17.2666 19.5625 17.5041C19.5625 17.425 19.5625 17.425 19.5625 17.5041Z" fill="#2A638A"/>
<path opacity="0.16" d="M14.8917 13.9416C14.8917 13.3083 14.4167 12.8333 13.7833 12.8333C13.15 12.8333 12.675 13.3083 12.675 13.8624C12.675 14.4958 13.15 14.9708 13.7042 14.9708C14.2583 14.9708 14.8125 14.4958 14.8917 13.9416Z" fill="#2A638A"/>
<path opacity="0.16" d="M18.2167 14.9708C18.85 14.9708 19.325 14.4958 19.325 13.8624C19.325 13.2291 18.85 12.8333 18.2167 12.8333C17.5833 12.8333 17.1083 13.3083 17.1083 13.9416C17.1083 14.5749 17.6625 14.9708 18.2167 14.9708Z" fill="#2A638A"/>
<path opacity="0.08" d="M19.5625 17.5041C19.5625 17.4249 19.5625 17.4249 19.5625 17.5041C19.5625 17.2666 19.4833 17.1082 19.325 16.9499L19.2458 16.8707C19.1667 16.7916 19.1667 16.7916 19.0875 16.7916C19.0083 16.7124 18.85 16.7124 18.7708 16.7124H13.15C13.0708 16.7124 12.9917 16.7124 12.8333 16.7916C12.8333 16.7916 12.7542 16.7916 12.675 16.8707C12.4375 17.0291 12.3583 17.2666 12.3583 17.5041C12.3583 17.7416 12.5167 18.0582 12.675 18.2957C13.3875 19.4041 14.6542 20.5124 15.9208 20.5124C17.1875 20.5124 18.4542 19.4041 19.1667 18.2957C19.4042 18.0582 19.5625 17.7416 19.5625 17.5041Z" fill="#2A638A"/>
</svg>
