<svg width="25" height="24" viewBox="0 0 25 24" fill="none" xmlns="http://www.w3.org/2000/svg">
<path d="M12.3333 2C6.81333 2 2.33333 6.48 2.33333 12C2.33333 17.52 6.81333 22 12.3333 22C17.8533 22 22.3333 17.52 22.3333 12C22.3333 6.48 17.8533 2 12.3333 2ZM12.3333 20C7.92333 20 4.33333 16.41 4.33333 12C4.33333 7.59 7.92333 4 12.3333 4C16.7433 4 20.3333 7.59 20.3333 12C20.3333 16.41 16.7433 20 12.3333 20ZM6.83333 17.5L14.3433 14.01L17.8333 6.5L10.3233 9.99L6.83333 17.5ZM12.3333 10.9C12.9433 10.9 13.4333 11.39 13.4333 12C13.4333 12.61 12.9433 13.1 12.3333 13.1C11.7233 13.1 11.2333 12.61 11.2333 12C11.2333 11.39 11.7233 10.9 12.3333 10.9Z" fill="#181C20"/>
</svg>
