<svg width="25" height="24" viewBox="0 0 25 24" fill="none" xmlns="http://www.w3.org/2000/svg">
<path d="M16.3966 3H8.93665L3.66665 8.27V15.73L8.93665 21H16.3966L21.6666 15.73V8.27L16.3966 3ZM19.6666 14.9L15.5666 19H9.76665L5.66665 14.9V9.1L9.76665 5H15.5666L19.6666 9.1V14.9Z" fill="#42474D"/>
<path d="M12.6666 17C13.2189 17 13.6666 16.5523 13.6666 16C13.6666 15.4477 13.2189 15 12.6666 15C12.1144 15 11.6666 15.4477 11.6666 16C11.6666 16.5523 12.1144 17 12.6666 17Z" fill="#42474D"/>
<path d="M11.6666 7H13.6666V14H11.6666V7Z" fill="#42474D"/>
</svg>
