<svg width="32" height="32" viewBox="0 0 32 32" fill="none" xmlns="http://www.w3.org/2000/svg">
<rect width="32" height="32" rx="16" fill="#ECDCFF"/>
<path opacity="0.32" d="M13.0594 20.2617C12.7415 18.5157 11.9467 17.0871 11.1519 16.9283L7.97278 17.5633C8.84704 17.4839 9.64182 19.1506 10.0392 20.8966C10.3571 22.1665 10.3571 24.3888 9.48286 24.6269L12.7415 23.9126C13.4568 23.1983 13.3773 21.849 13.0594 20.2617Z" fill="#66587B"/>
<path d="M10.0391 20.8968C9.64175 19.1508 8.84697 17.4841 7.97271 17.6428C7.09845 17.8016 7.25741 20.2619 7.41636 21.2937C7.57532 22.4048 8.44958 24.7858 9.40332 24.7064C10.3571 24.627 10.3571 22.2461 10.0391 20.8968Z" fill="#66587B"/>
<path opacity="0.32" d="M18.9407 20.2617C19.2586 18.5157 20.0534 17.0871 20.8482 16.9283L24.0273 17.5633C23.1531 17.4839 22.3583 19.1506 21.9609 20.8966C21.643 22.1665 21.643 24.3888 22.5172 24.6269L19.2586 23.9126C18.5433 23.1983 18.6228 21.849 18.9407 20.2617Z" fill="#66587B"/>
<path d="M21.9608 20.8967C22.3582 19.1507 23.153 17.4046 24.0273 17.6427C24.9015 17.8015 24.7426 20.2618 24.5836 21.2936C24.4247 22.4047 23.5504 24.7857 22.5967 24.7063C21.6429 24.6269 21.6429 22.246 21.9608 20.8967Z" fill="#66587B"/>
<path d="M18.9408 20.2619C19.1792 19.0714 19.5766 17.9603 20.133 17.4047C18.9408 16.2142 17.1923 14.7856 16.0001 14.7856C14.8079 14.7856 13.0594 16.2142 11.8672 17.4047C12.4236 17.9603 12.821 19.0714 13.0594 20.2619C13.2978 21.373 13.3773 22.4048 13.1389 23.1191L13.2184 23.1985C14.49 24.4683 15.0464 24.5477 16.0001 24.5477C16.9538 24.5477 17.5102 24.4683 18.8613 23.1985C18.6229 22.4048 18.7024 21.4524 18.9408 20.2619Z" fill="#66587B"/>
<path opacity="0.72" d="M24.5833 11.1348C24.5038 9.70616 23.3911 8.59504 21.8015 8.03948C19.5762 7.24581 16.7944 7.24581 15.9996 7.32518C15.2843 7.32518 12.4231 7.24581 10.1977 8.03948C8.60816 8.59504 7.49547 9.78553 7.41599 11.1348C7.25704 13.5157 7.97234 15.4205 9.16451 17.4047L10.5156 17.1666L11.1515 17.0078C11.3899 17.0078 11.6283 17.1666 11.8668 17.484C13.0589 16.2935 14.8075 14.865 15.9996 14.865C17.1918 14.865 18.9403 16.2935 20.1325 17.484C20.3709 17.2459 20.6094 17.0872 20.8478 17.0078L21.4836 17.1666L22.8348 17.4047C24.0269 15.4205 24.7422 13.5157 24.5833 11.1348ZM14.8869 13.9126C14.728 14.23 14.3306 14.3888 14.0127 14.3888C13.7742 14.3888 13.6153 14.3094 13.3769 14.1507L12.3436 13.4364C11.8668 13.1189 11.7078 12.4046 12.0257 11.9284C12.3436 11.4522 13.0589 11.2935 13.5358 11.6109L14.6485 12.3252C15.1254 12.7221 15.2843 13.357 14.8869 13.9126ZM19.6556 13.4364L18.5429 14.1507C18.384 14.3094 18.225 14.3888 17.9866 14.3888C17.6687 14.3888 17.2713 14.23 17.1123 13.9126C16.7944 13.4364 16.8739 12.7221 17.4302 12.4046L18.5429 11.6903C19.0198 11.3729 19.7351 11.4522 20.053 12.0078C20.3709 12.5633 20.1325 13.1189 19.6556 13.4364Z" fill="#66587B"/>
<path opacity="0.88" d="M11.2306 9.30018C13.0586 8.66813 15.3635 8.66813 15.9993 8.66813C16.6351 8.66813 18.94 8.58913 20.768 9.30018C22.0396 9.77422 22.9934 10.7223 23.0729 11.8284C23.2318 13.8825 22.596 15.4627 21.5628 17.1218L22.9139 17.3588C24.1061 15.3836 24.8214 13.4875 24.6624 11.1173C24.5829 9.69521 23.4703 8.58913 21.8807 8.03608C19.6553 7.24602 16.8736 7.24602 16.0788 7.32503C15.3635 7.32503 12.5023 7.24602 10.2769 8.03608C8.68731 8.58913 7.57462 9.77422 7.49514 11.1173C7.33618 13.4875 8.05149 15.3836 9.24366 17.3588L10.5948 17.1218C9.56157 15.3836 8.92575 13.8825 9.0847 11.8284C9.0847 10.6433 9.95896 9.77422 11.2306 9.30018Z" fill="#66587B"/>
</svg>
