<svg width="25" height="24" viewBox="0 0 25 24" fill="none" xmlns="http://www.w3.org/2000/svg">
<path d="M12.5 4.66663C8.43333 4.66663 5.16666 7.93329 5.16666 12C5.16666 16.0666 8.43333 19.3333 12.5 19.3333C16.5667 19.3333 19.8333 16.0666 19.8333 12C19.8333 7.93329 16.5667 4.66663 12.5 4.66663ZM14.3667 9.33329C14.9 9.33329 15.3 9.73329 15.3 10.2666C15.3 10.8 14.9 11.2 14.3667 11.2C13.8333 11.2 13.4333 10.8 13.4333 10.2666C13.4333 9.73329 13.9 9.33329 14.3667 9.33329ZM10.6333 9.33329C11.1667 9.33329 11.5 9.73329 11.5 10.2666C11.5 10.8 11.1 11.1333 10.5667 11.1333C10.0333 11.1333 9.7 10.6666 9.7 10.2C9.76666 9.66663 10.1667 9.26663 10.6333 9.33329ZM15.5 13.2666C15.5 13.5333 15.3667 13.7333 15.2333 14C14.6333 14.9333 13.5667 15.8666 12.5 15.8666C11.3667 15.8666 10.3667 14.8666 9.76666 14C9.63333 13.8 9.5 13.5333 9.5 13.3333C9.5 13.1333 9.56666 12.9333 9.76666 12.8C9.76666 12.6666 9.83333 12.6666 9.83333 12.6C9.9 12.5333 10.0333 12.5333 10.1 12.5333H14.8333C14.9667 12.5333 15.0333 12.5333 15.1 12.6C15.1 12.6 15.1667 12.6 15.2333 12.6666L15.3 12.7333C15.4333 12.8666 15.5 13.0666 15.5 13.2666C15.5 13.2 15.5 13.2 15.5 13.2666Z" fill="#2A638A"/>
<path opacity="0.16" d="M11.5667 10.2666C11.5667 9.73325 11.1667 9.33325 10.6333 9.33325C10.1 9.33325 9.7 9.73325 9.7 10.1999C9.7 10.7333 10.1 11.1333 10.5667 11.1333C11.0333 11.1333 11.5 10.7333 11.5667 10.2666Z" fill="#2A638A"/>
<path opacity="0.16" d="M14.3667 11.1333C14.9 11.1333 15.3 10.7333 15.3 10.1999C15.3 9.66659 14.9 9.33325 14.3667 9.33325C13.8333 9.33325 13.4333 9.73325 13.4333 10.2666C13.4333 10.7999 13.9 11.1333 14.3667 11.1333Z" fill="#2A638A"/>
<path opacity="0.08" d="M15.5 13.2666C15.5 13.2 15.5 13.2 15.5 13.2666C15.5 13.0666 15.4333 12.9333 15.3 12.8L15.2333 12.7333C15.1667 12.6666 15.1667 12.6666 15.1 12.6666C15.0333 12.6 14.9 12.6 14.8333 12.6H10.1C10.0333 12.6 9.96667 12.6 9.83333 12.6666C9.83333 12.6666 9.76667 12.6666 9.7 12.7333C9.5 12.8666 9.43333 13.0666 9.43333 13.2666C9.43333 13.4666 9.56667 13.7333 9.7 13.9333C10.3 14.8666 11.3667 15.8 12.4333 15.8C13.5 15.8 14.5667 14.8666 15.1667 13.9333C15.3667 13.7333 15.5 13.4666 15.5 13.2666Z" fill="#2A638A"/>
</svg>
