<svg width="48" height="48" viewBox="0 0 48 48" fill="none" xmlns="http://www.w3.org/2000/svg">
<path d="M34.5737 22.4177H34.675C34.7759 22.4067 34.8736 22.3754 34.9621 22.3255C35.0506 22.2757 35.128 22.2083 35.1897 22.1276C35.2515 22.0469 35.2961 21.9545 35.3211 21.856C35.3461 21.7575 35.3508 21.655 35.335 21.5546C34.9738 18.8077 33.6271 16.2859 31.5457 14.4591C29.4643 12.6323 26.7902 11.625 24.0218 11.625C21.2533 11.625 18.5792 12.6323 16.4978 14.4591C14.4164 16.2859 13.0697 18.8077 12.7086 21.5546C12.6953 21.6546 12.7018 21.7563 12.7278 21.8538C12.7537 21.9513 12.7987 22.0428 12.8599 22.1229C12.9212 22.2031 12.9977 22.2703 13.0849 22.3209C13.1722 22.3715 13.2686 22.4044 13.3685 22.4177C13.4685 22.431 13.5701 22.4245 13.6676 22.3985C13.765 22.3725 13.8564 22.3275 13.9365 22.2662C14.0165 22.2049 14.0838 22.1284 14.1343 22.041C14.1848 21.9537 14.2177 21.8573 14.231 21.7572C14.5403 19.3775 15.7045 17.1919 17.5062 15.6082C19.3078 14.0246 21.6238 13.1513 24.0218 13.1513C26.4197 13.1513 28.7357 14.0246 30.5374 15.6082C32.339 17.1919 33.5032 19.3775 33.8125 21.7572C33.8395 21.9402 33.9311 22.1075 34.0707 22.2287C34.2104 22.3499 34.3889 22.417 34.5737 22.4177Z" fill="#2A638A"/>
<path fill-rule="evenodd" clip-rule="evenodd" d="M33.75 22.5C32.1731 22.5 30.7593 23.1942 29.7959 24.2963C28.9884 25.2198 28.5 26.427 28.5 27.75C28.5 28.1642 28.1642 28.5 27.75 28.5C27.3358 28.5 27 28.1642 27 27.75C27 26.0502 27.6293 24.4955 28.6666 23.309C29.9028 21.895 31.7223 21 33.75 21C37.4779 21 40.5 24.0221 40.5 27.75C40.5 31.4779 37.4779 34.5 33.75 34.5C33.3358 34.5 33 34.1642 33 33.75C33 33.3358 33.3358 33 33.75 33C36.6495 33 39 30.6495 39 27.75C39 24.8505 36.6495 22.5 33.75 22.5Z" fill="#2A638A"/>
<path d="M14.3697 34.6061C16.0702 34.6026 17.7082 33.9643 18.9633 32.8161C19.1125 32.6787 19.201 32.4877 19.2094 32.285C19.2179 32.0824 19.1455 31.8846 19.0083 31.7353C18.871 31.5861 18.6802 31.4974 18.4776 31.489C18.2751 31.4806 18.0775 31.553 17.9283 31.6903C16.9572 32.582 15.6877 33.0773 14.3697 33.0788C13.0262 33.0641 11.7371 32.5451 10.7577 31.6247C9.77822 30.7042 9.17976 29.4493 9.08074 28.1083C8.98173 26.7674 9.38939 25.4381 10.223 24.3835C11.0566 23.329 12.2555 22.6261 13.5823 22.4139C13.8427 22.3717 14.1059 22.3491 14.3697 22.3464C14.5726 22.3464 14.7672 22.2657 14.9107 22.1222C15.0541 21.9786 15.1347 21.7839 15.1347 21.5808C15.1347 21.3778 15.0541 21.1831 14.9107 21.0395C14.7672 20.896 14.5726 20.8153 14.3697 20.8153C14.0294 20.8173 13.6897 20.8449 13.3536 20.8979C11.6376 21.1596 10.0834 22.0598 9.00177 23.4184C7.9201 24.777 7.39054 26.494 7.51889 28.2264C7.64724 29.9587 8.42406 31.5788 9.69412 32.7629C10.9642 33.947 12.6339 34.6079 14.3697 34.6136V34.6061Z" fill="#2A638A"/>
<path d="M28.5927 37.8747C28.8208 37.8681 29.039 37.7801 29.2079 37.6267C29.3769 37.4732 29.4854 37.2643 29.5139 37.0378C29.5424 36.8113 29.4891 36.582 29.3635 36.3914C29.2379 36.2008 29.0483 36.0614 28.829 35.9984C27.1262 35.5555 25.5734 34.6633 24.3327 33.4149C23.092 32.1666 22.209 30.6078 21.7757 28.9014C21.3424 27.1949 21.3748 25.4034 21.8695 23.7137C22.3641 22.0241 23.303 20.4983 24.5879 19.2956C24.6863 19.2111 24.7666 19.1076 24.8239 18.9912C24.8812 18.8748 24.9143 18.748 24.9213 18.6184C24.9283 18.4889 24.909 18.3593 24.8646 18.2374C24.8201 18.1155 24.7515 18.0039 24.6628 17.9093C24.5741 17.8147 24.4671 17.739 24.3484 17.6869C24.2297 17.6348 24.1016 17.6073 23.972 17.606C23.8423 17.6048 23.7138 17.6298 23.5941 17.6796C23.4744 17.7295 23.366 17.803 23.2755 17.8959C21.3848 19.6676 20.1312 22.0143 19.7094 24.5718C19.6075 25.2021 19.5561 25.8396 19.5557 26.4781C19.549 29.0832 20.4109 31.6161 22.005 33.6756C23.5992 35.7352 25.8343 37.2036 28.3565 37.8484C28.4336 37.8682 28.5131 37.877 28.5927 37.8747Z" fill="#66587B"/>
<path d="M29.1971 34.3735C29.3235 34.4227 29.4586 34.4453 29.5941 34.4402C29.7297 34.435 29.8627 34.4021 29.9851 34.3435C30.1075 34.285 30.2165 34.2019 30.3056 34.0995C30.3947 33.9972 30.4619 33.8776 30.503 33.7483C30.5442 33.619 30.5584 33.4826 30.5448 33.3476C30.5313 33.2125 30.4902 33.0817 30.4242 32.9632C30.3582 32.8447 30.2686 32.741 30.1609 32.6585C30.0533 32.5759 29.9299 32.5164 29.7983 32.4834C28.8519 32.1695 27.9886 31.6458 27.2729 30.9514C26.5571 30.257 26.0072 29.4098 25.6644 28.4729C25.3215 27.5361 25.1944 26.5339 25.2926 25.5409C25.3909 24.5479 25.7118 23.5898 26.2316 22.7381C26.3001 22.6261 26.3458 22.5018 26.3663 22.3722C26.3868 22.2425 26.3815 22.1102 26.3509 21.9826C26.3202 21.855 26.2647 21.7347 26.1876 21.6286C26.1105 21.5225 26.0132 21.4327 25.9014 21.3642C25.7895 21.2957 25.6653 21.25 25.5358 21.2296C25.4062 21.2091 25.2739 21.2144 25.1464 21.2452C25.0189 21.2759 24.8987 21.3315 24.7926 21.4087C24.6866 21.4859 24.5967 21.5833 24.5282 21.6952C23.8479 22.8028 23.4273 24.0502 23.2981 25.3437C23.1689 26.6371 23.3346 27.9429 23.7826 29.1629C24.2305 30.3828 24.9492 31.4851 25.8845 32.3868C26.8197 33.2885 27.9473 33.9662 29.1823 34.3688L29.1971 34.3735Z" fill="#66587B"/>
<path d="M21.5394 37.7959C21.7285 37.7962 21.9134 37.7404 22.0708 37.6355C22.2282 37.5306 22.351 37.3813 22.4237 37.2066C22.4963 37.0319 22.5155 36.8396 22.479 36.6539C22.4424 36.4682 22.3516 36.2976 22.2181 36.1636C20.9457 34.8863 19.9377 33.3704 19.2517 31.7026C18.5658 30.0348 18.2155 28.2479 18.2208 26.4443C18.2219 25.9039 18.2532 25.3639 18.3146 24.827C18.43 23.8509 18.6488 22.8899 18.967 21.96C19.0393 21.7219 19.0164 21.465 18.9031 21.2434C18.7899 21.0219 18.5952 20.8529 18.3599 20.7722C18.1247 20.6914 17.8673 20.7052 17.6421 20.8106C17.4168 20.9159 17.2411 21.1047 17.1521 21.3371C16.2057 24.1111 16.051 27.0942 16.7055 29.9513C17.3599 32.8084 18.7976 35.4263 20.8569 37.5107C20.9463 37.6009 21.0526 37.6725 21.1698 37.7215C21.2869 37.7704 21.4125 37.7957 21.5394 37.7959Z" fill="#66587B"/>
<path d="M28.5928 37.8747C28.8208 37.8681 29.039 37.7801 29.208 37.6267C29.3769 37.4732 29.4854 37.2643 29.514 37.0378C29.5425 36.8113 29.4891 36.582 29.3635 36.3914C29.2379 36.2008 29.0483 36.0614 28.829 35.9984C27.1262 35.5555 25.5734 34.6633 24.3328 33.4149C23.0921 32.1666 22.209 30.6078 21.7757 28.9014C21.3424 27.1949 21.3748 25.4034 21.8695 23.7137C22.3642 22.0241 23.303 20.4983 24.588 19.2956C24.6864 19.2111 24.7666 19.1076 24.8239 18.9912C24.8812 18.8748 24.9143 18.748 24.9213 18.6184C24.9283 18.4889 24.909 18.3593 24.8646 18.2374C24.8202 18.1155 24.7515 18.0039 24.6628 17.9093C24.5741 17.8147 24.4672 17.739 24.3484 17.6869C24.2297 17.6348 24.1017 17.6073 23.972 17.606C23.8424 17.6048 23.7138 17.6298 23.5941 17.6796C23.4744 17.7295 23.3661 17.803 23.2755 17.8959C21.3848 19.6676 20.1313 22.0143 19.7095 24.5718C19.6076 25.2021 19.5561 25.8396 19.5557 26.4781C19.549 29.0832 20.411 31.6161 22.0051 33.6756C23.5992 35.7352 25.8343 37.2036 28.3565 37.8484C28.4337 37.8682 28.5132 37.877 28.5928 37.8747Z" fill="#66587B"/>
<path d="M29.1971 34.3735C29.3235 34.4227 29.4586 34.4453 29.5942 34.4402C29.7297 34.435 29.8628 34.4021 29.9851 34.3435C30.1075 34.285 30.2166 34.2019 30.3057 34.0995C30.3947 33.9972 30.4619 33.8776 30.5031 33.7483C30.5442 33.619 30.5584 33.4826 30.5449 33.3476C30.5313 33.2125 30.4903 33.0817 30.4242 32.9632C30.3582 32.8447 30.2686 32.741 30.161 32.6585C30.0533 32.5759 29.9299 32.5164 29.7984 32.4834C28.852 32.1695 27.9887 31.6458 27.2729 30.9514C26.5571 30.257 26.0073 29.4098 25.6644 28.4729C25.3215 27.5361 25.1945 26.5339 25.2927 25.5409C25.3909 24.5479 25.7119 23.5898 26.2316 22.7381C26.3001 22.6261 26.3459 22.5018 26.3664 22.3722C26.3868 22.2425 26.3816 22.1102 26.3509 21.9826C26.3203 21.855 26.2648 21.7347 26.1877 21.6286C26.1105 21.5225 26.0133 21.4327 25.9014 21.3642C25.7896 21.2957 25.6654 21.25 25.5358 21.2296C25.4063 21.2091 25.274 21.2144 25.1465 21.2452C25.019 21.2759 24.8987 21.3315 24.7927 21.4087C24.6866 21.4859 24.5968 21.5833 24.5283 21.6952C23.8479 22.8028 23.4273 24.0502 23.2981 25.3437C23.169 26.6371 23.3346 27.9429 23.7826 29.1629C24.2306 30.3828 24.9492 31.4851 25.8845 32.3868C26.8198 33.2885 27.9473 33.9662 29.1823 34.3688L29.1971 34.3735Z" fill="#66587B"/>
<path d="M21.5395 37.7959C21.7286 37.7962 21.9135 37.7404 22.0709 37.6355C22.2283 37.5306 22.3511 37.3813 22.4237 37.2066C22.4963 37.0319 22.5156 36.8396 22.479 36.6539C22.4424 36.4682 22.3517 36.2976 22.2182 36.1636C20.9458 34.8863 19.9377 33.3704 19.2518 31.7026C18.5658 30.0348 18.2155 28.2479 18.2209 26.4443C18.222 25.9039 18.2533 25.3639 18.3146 24.827C18.4301 23.8509 18.6488 22.8899 18.9671 21.96C19.0393 21.7219 19.0164 21.465 18.9032 21.2434C18.7899 21.0219 18.5952 20.8529 18.36 20.7722C18.1247 20.6914 17.8674 20.7052 17.6421 20.8106C17.4168 20.9159 17.2412 21.1047 17.1522 21.3371C16.2057 24.1111 16.0511 27.0942 16.7055 29.9513C17.36 32.8084 18.7977 35.4263 20.857 37.5107C20.9464 37.6009 21.0527 37.6725 21.1698 37.7215C21.2869 37.7704 21.4125 37.7957 21.5395 37.7959Z" fill="#66587B"/>
</svg>
