<svg width="32" height="32" viewBox="0 0 32 32" fill="none" xmlns="http://www.w3.org/2000/svg">
<rect width="32" height="32" rx="16" fill="#FFE4C4"/>
<path d="M16 7.29163C11.1708 7.29163 7.29167 11.1708 7.29167 16C7.29167 20.8291 11.1708 24.7083 16 24.7083C20.8292 24.7083 24.7083 20.8291 24.7083 16C24.7083 11.25 20.8292 7.29163 16 7.29163ZM18.2167 12.8333C18.85 12.8333 19.325 13.3083 19.325 13.9416C19.325 14.575 18.85 15.05 18.2167 15.05C17.5833 15.05 17.1083 14.575 17.1083 13.9416C17.1083 13.3083 17.6625 12.8333 18.2167 12.8333ZM13.8625 12.8333C14.4167 12.8333 14.8917 13.3875 14.8917 13.9416C14.8917 14.4958 14.3375 14.9708 13.7833 14.9708C13.2292 14.9708 12.7542 14.4166 12.7542 13.8625C12.7542 13.2291 13.2292 12.7541 13.8625 12.8333ZM18.2958 19.5625H13.7833C13.15 19.5625 12.675 19.0875 12.675 18.4541C12.675 17.8208 13.15 17.3458 13.7833 17.3458H18.2958C18.9292 17.3458 19.4042 17.8208 19.4042 18.4541C19.4042 19.0875 18.85 19.5625 18.2958 19.5625Z" fill="#EC8B1A"/>
<path opacity="0.16" d="M14.8917 13.9416C14.8917 13.3874 14.4958 12.8333 13.8625 12.8333C13.3083 12.8333 12.7542 13.2291 12.7542 13.8624C12.7542 14.4166 13.15 14.9708 13.7833 14.9708C14.3375 15.0499 14.8125 14.5749 14.8917 13.9416Z" fill="#EC8B1A"/>
<path opacity="0.16" d="M18.2167 14.9708C18.85 14.9708 19.325 14.4958 19.325 13.8625C19.325 13.2292 18.85 12.7542 18.2167 12.7542C17.5833 12.7542 17.1875 13.3083 17.1875 13.9417C17.1875 14.575 17.6625 14.9708 18.2167 14.9708Z" fill="#EC8B1A"/>
<path opacity="0.08" d="M13.7833 19.5625H18.2958C18.9292 19.5625 19.4042 19.0875 19.4042 18.4542C19.4042 17.8208 18.9292 17.3458 18.2958 17.3458H13.7833C13.2292 17.3458 12.675 17.8208 12.675 18.4542C12.675 19.0875 13.15 19.5625 13.7833 19.5625Z" fill="#EC8B1A"/>
</svg>
