<svg width="32" height="32" viewBox="0 0 32 32" fill="none" xmlns="http://www.w3.org/2000/svg">
<rect width="32" height="32" rx="16" fill="#FFDAD6"/>
<path d="M16 7.29163C11.1708 7.29163 7.29167 11.1708 7.29167 16C7.29167 20.8291 11.1708 24.7083 16 24.7083C20.8292 24.7083 24.7083 20.8291 24.7083 16C24.7083 11.25 20.8292 7.29163 16 7.29163ZM17.425 13.2291L18.5333 12.5166C19.0083 12.2 19.7208 12.2791 20.0375 12.8333C20.3542 13.3083 20.275 14.0208 19.7208 14.3375L18.6125 15.05C18.4542 15.2083 18.2167 15.2083 17.9792 15.2083C17.6625 15.2083 17.2667 15.05 17.1083 14.7333C16.7917 14.2583 16.95 13.625 17.425 13.2291ZM12.1208 12.8333C12.4375 12.3583 13.15 12.2 13.625 12.5166L14.7333 13.2291C15.2083 13.5458 15.3667 14.2583 15.05 14.7333C14.8125 15.05 14.4958 15.2083 14.1792 15.2083C13.9417 15.2083 13.7833 15.1291 13.5458 15.05L12.4375 14.3375C11.8833 13.9416 11.8042 13.3083 12.1208 12.8333ZM20.4333 19.8791C20.4333 19.8791 21.3042 19.4041 22.175 19.1666C22.0167 19.5625 21.7792 19.8791 21.4625 20.275C20.5917 20.5125 19.9583 20.9083 19.6417 20.9875C19.5625 20.9875 19.5625 21.0666 19.4833 21.0666C17.7417 22.4916 14.2583 22.8875 12.5958 21.225C12.5167 21.1458 12.5167 21.1458 12.4375 21.1458L10.6958 20.5916C10.4583 20.275 10.2208 19.9583 9.98334 19.6416C10.775 19.8791 11.6458 20.1958 11.6458 20.1958C11.8042 20.275 11.9625 20.1166 11.9625 19.9583L11.8833 17.7416C11.8833 17.6625 11.8042 17.5833 11.725 17.5041C11.725 17.5041 9.825 16.8708 9.1125 16.6333C9.1125 16.475 9.1125 16.3166 9.1125 16.0791C9.1125 15.9208 9.1125 15.7625 9.1125 15.6833C9.5875 15.8416 12.3583 17.1083 12.3583 17.1083C12.4375 17.1875 12.5958 17.1875 12.675 17.1083C14.4958 16.3958 16.8708 15.8416 19.1667 17.0291C19.2458 17.1083 19.4042 17.1083 19.5625 17.0291C19.5625 17.0291 22.175 15.6833 22.8083 15.4458C22.8083 15.6833 22.8083 15.8416 22.8083 16.0791C22.8083 16.1583 22.8083 16.3166 22.8083 16.3958C22.0167 16.6333 20.275 17.425 20.275 17.425C20.1958 17.425 20.1167 17.5041 20.1167 17.6625L20.0375 19.7208C20.1167 19.8 20.275 19.9583 20.4333 19.8791Z" fill="#BA1A1A"/>
<path opacity="0.16" d="M17.425 13.2291L18.5333 12.5166C19.0083 12.2 19.7208 12.2791 20.0375 12.8333C20.3542 13.3083 20.275 14.0208 19.7208 14.3375L18.6125 15.05C18.4542 15.2083 18.2167 15.2083 17.9792 15.2083C17.6625 15.2083 17.2667 15.05 17.1083 14.7333C16.7917 14.2583 16.95 13.625 17.425 13.2291Z" fill="#BA1A1A"/>
<path opacity="0.16" d="M12.1208 12.8333C12.4375 12.3583 13.15 12.2 13.625 12.5167L14.7333 13.2292C15.2083 13.5458 15.3667 14.2583 15.05 14.7333C14.8125 15.05 14.4958 15.2083 14.1792 15.2083C13.9417 15.2083 13.7833 15.1292 13.5458 15.05L12.4375 14.3375C11.8833 13.9417 11.8042 13.3083 12.1208 12.8333Z" fill="#BA1A1A"/>
<path opacity="0.08" d="M20.4333 19.8791C20.4333 19.8791 21.3042 19.4041 22.175 19.1666C22.0167 19.5625 21.7792 19.8791 21.4625 20.275C20.5917 20.5125 19.9583 20.9083 19.6417 20.9875C19.5625 20.9875 19.5625 21.0666 19.4833 21.0666C17.7417 22.4916 14.2583 22.8875 12.5958 21.225C12.5167 21.1458 12.5167 21.1458 12.4375 21.1458L10.6958 20.5916C10.4583 20.275 10.2208 19.9583 9.98334 19.6416C10.775 19.8791 11.6458 20.1958 11.6458 20.1958C11.8042 20.275 11.9625 20.1166 11.9625 19.9583L11.8833 17.7416C11.8833 17.6625 11.8042 17.5833 11.725 17.5041C11.725 17.5041 9.825 16.8708 9.1125 16.6333C9.1125 16.475 9.1125 16.3166 9.1125 16.0791C9.1125 15.9208 9.1125 15.7625 9.1125 15.6833C9.5875 15.8416 12.3583 17.1083 12.3583 17.1083C12.4375 17.1875 12.5958 17.1875 12.675 17.1083C14.4958 16.3958 16.8708 15.8416 19.1667 17.0291C19.2458 17.1083 19.4042 17.1083 19.5625 17.0291C19.5625 17.0291 22.175 15.6833 22.8083 15.4458C22.8083 15.6833 22.8083 15.8416 22.8083 16.0791C22.8083 16.1583 22.8083 16.3166 22.8083 16.3958C22.0167 16.6333 20.275 17.425 20.275 17.425C20.1958 17.425 20.1167 17.5041 20.1167 17.6625L20.0375 19.7208C20.1167 19.8 20.275 19.9583 20.4333 19.8791Z" fill="#BA1A1A"/>
</svg>
